#N canvas 532 29 1231 988 10;
#X obj 292 401 osc~;
#X obj 297 362 nbx 5 14 -1e+037 1e+037 0 0 empty empty empty 0 -8 0
10 -262144 -1 -1 31103.5 256;
#X obj 226 152 key;
#X floatatom 224 174 5 0 0 0 - - -;
#X obj 225 217 bng 15 250 50 0 empty empty empty 17 7 0 10 -262144
-1 -1;
#X obj 224 194 select 49 50;
#X obj 255 217 bng 15 250 50 0 empty empty empty 17 7 0 10 -262144
-1 -1;
#X obj 237 249 f;
#X floatatom 379 214 5 0 0 0 - - -;
#X obj 379 158 loadbang;
#X obj 296 251 f;
#X obj 296 275 +;
#X obj 239 275 -;
#X text 419 213 frequency inc/dec;
#X text 435 159 initial value for freq inc/dec;
#X text 116 195 keys "1" and "2";
#X msg 477 194 100;
#X msg 435 193 1;
#X msg 379 193 0.1;
#X obj 238 610 *~;
#X floatatom 342 593 5 0 0 0 - - -;
#X msg 381 551 1;
#X msg 336 551 0;
#X obj 24 612 *~;
#X floatatom 49 522 5 0 0 0 - - -;
#X obj 213 890 env~;
#X floatatom 216 917 5 0 0 0 - - -;
#X msg 65 396 1;
#X msg 126 394 0;
#X floatatom 93 479 5 0 0 0 - - -;
#X obj 96 453 expr -1*($i1-1);
#X floatatom 51 480 5 0 0 0 - - -;
#X obj 244 821 *~;
#X obj 271 821 *~;
#X obj 430 640 vsl 15 128 0 1 0 0 empty empty empty 0 -9 0 10 -262144
-1 -1 4699 1;
#X floatatom 427 765 5 0 0 0 - - -;
#X obj 429 580 loadbang;
#X obj 623 610 tgl 15 0 empty empty ch.1 17 7 0 10 -262144 -1 -1 0
1;
#X obj 708 610 tgl 15 0 empty empty ch.2 17 7 0 10 -262144 -1 -1 0
1;
#X obj 751 654 tgl 15 0 empty empty ch.4 17 7 0 10 -262144 -1 -1 0
1;
#X obj 747 573 tgl 15 0 empty empty ch.3 17 7 0 10 -262144 -1 -1 0
1;
#X obj 808 611 tgl 15 0 empty empty ch.5 17 7 0 10 -262144 -1 -1 0
1;
#X obj 858 648 tgl 15 0 empty empty ch.6 17 7 0 10 -262144 -1 -1 0
1;
#X obj 1086 612 tgl 15 0 empty empty ch.12 17 7 0 10 -262144 -1 -1
0 1;
#X obj 856 574 tgl 15 0 empty empty ch.7 17 7 0 10 -262144 -1 -1 0
1;
#X obj 935 592 tgl 15 0 empty empty ch.9 17 7 0 10 -262144 -1 -1 0
1;
#X obj 937 636 tgl 15 0 empty empty ch.8 17 7 0 10 -262144 -1 -1 0
1;
#X obj 1011 595 tgl 15 0 empty empty ch.11 17 7 0 10 -262144 -1 -1
0 1;
#X obj 1011 638 tgl 15 0 empty empty ch.10 17 7 0 10 -262144 -1 -1
0 1;
#X msg 428 606 0.37;
#X floatatom 149 592 5 0 0 0 - - -;
#X msg 185 554 1;
#X msg 141 552 0;
#X text 141 617 Left Channel;
#X text 331 616 Right Channel;
#X text 60 336 Selector estereo;
#X text 52 372 Izquierdo;
#X obj 259 878 dac~ 1 2;
#X obj 163 396 loadbang;
#X text 128 371 Derecho (default);
#X msg 342 302 100;
#X obj 343 279 loadbang;
#X text 749 148 12 -;
#X obj 338 873 env~;
#X floatatom 341 900 5 0 0 0 - - -;
#X connect 0 0 19 0;
#X connect 0 0 23 0;
#X connect 1 0 7 1;
#X connect 1 0 10 1;
#X connect 1 0 0 0;
#X connect 2 0 3 0;
#X connect 3 0 5 0;
#X connect 4 0 7 0;
#X connect 5 0 4 0;
#X connect 5 1 6 0;
#X connect 6 0 10 0;
#X connect 7 0 12 0;
#X connect 8 0 11 1;
#X connect 8 0 12 1;
#X connect 9 0 18 0;
#X connect 10 0 11 0;
#X connect 11 0 1 0;
#X connect 12 0 1 0;
#X connect 16 0 8 0;
#X connect 17 0 8 0;
#X connect 18 0 8 0;
#X connect 19 0 33 0;
#X connect 20 0 19 1;
#X connect 21 0 20 0;
#X connect 22 0 20 0;
#X connect 23 0 32 0;
#X connect 24 0 23 1;
#X connect 25 0 26 0;
#X connect 27 0 30 0;
#X connect 27 0 31 0;
#X connect 28 0 30 0;
#X connect 28 0 31 0;
#X connect 29 0 20 0;
#X connect 30 0 29 0;
#X connect 31 0 24 0;
#X connect 32 0 25 0;
#X connect 32 0 57 0;
#X connect 33 0 57 1;
#X connect 33 0 63 0;
#X connect 34 0 33 1;
#X connect 34 0 32 1;
#X connect 34 0 35 0;
#X connect 36 0 49 0;
#X connect 49 0 34 0;
#X connect 50 0 23 1;
#X connect 51 0 50 0;
#X connect 52 0 50 0;
#X connect 58 0 28 0;
#X connect 60 0 1 0;
#X connect 61 0 60 0;
#X connect 63 0 64 0;
