#N canvas 953 0 958 988 10;
#X obj 252 599 dac~;
#X obj 215 508 osc~;
#X obj 216 312 nbx 5 14 -1e+037 1e+037 0 0 empty empty empty 0 -8 0
10 -262144 -1 -1 340.6 256;
#X obj 145 102 key;
#X floatatom 143 124 5 0 0 0 - - -;
#X obj 144 167 bng 15 250 50 0 empty empty empty 17 7 0 10 -262144
-1 -1;
#X obj 143 144 select 49 50;
#X obj 174 167 bng 15 250 50 0 empty empty empty 17 7 0 10 -262144
-1 -1;
#X obj 156 199 f;
#X floatatom 256 144 5 0 0 0 - - -;
#X obj 256 88 loadbang;
#X obj 215 201 f;
#X obj 215 225 +;
#X obj 158 225 -;
#X text 296 143 frequency inc/dec;
#X text 312 89 initial value for freq inc/dec;
#X text 35 145 keys "1" and "2";
#X obj 263 543 *~;
#X obj 355 365 < 800;
#X obj 354 389 select 0 1;
#X obj 354 413 bng 15 250 50 0 empty empty empty 17 7 0 10 -262144
-1 -1;
#X obj 382 412 bng 15 250 50 0 empty empty empty 17 7 0 10 -262144
-1 -1;
#X msg 335 458 1;
#X floatatom 383 517 5 0 0 0 - - -;
#X msg 389 458 1;
#X obj 512 128 key;
#X floatatom 510 150 5 0 0 0 - - -;
#X msg 549 216 32000;
#X msg 505 219 137;
#X msg 598 216 32232;
#X obj 510 170 select 113 119 101 114;
#X msg 354 124 100;
#X msg 312 123 1;
#X msg 256 123 0.1;
#X connect 1 0 17 0;
#X connect 2 0 8 1;
#X connect 2 0 11 1;
#X connect 2 0 1 0;
#X connect 2 0 18 0;
#X connect 3 0 4 0;
#X connect 4 0 6 0;
#X connect 5 0 8 0;
#X connect 6 0 5 0;
#X connect 6 1 7 0;
#X connect 7 0 11 0;
#X connect 8 0 13 0;
#X connect 9 0 12 1;
#X connect 9 0 13 1;
#X connect 10 0 33 0;
#X connect 11 0 12 0;
#X connect 12 0 2 0;
#X connect 13 0 2 0;
#X connect 17 0 0 1;
#X connect 18 0 19 0;
#X connect 19 0 20 0;
#X connect 19 1 21 0;
#X connect 20 0 22 0;
#X connect 21 0 24 0;
#X connect 22 0 23 0;
#X connect 23 0 17 1;
#X connect 24 0 23 0;
#X connect 25 0 26 0;
#X connect 26 0 30 0;
#X connect 27 0 2 0;
#X connect 28 0 2 0;
#X connect 29 0 2 0;
#X connect 30 0 28 0;
#X connect 30 1 27 0;
#X connect 30 2 29 0;
#X connect 31 0 9 0;
#X connect 32 0 9 0;
#X connect 33 0 9 0;
